<svg id="share" xmlns="http://www.w3.org/2000/svg" width="16.668" height="18.183" viewBox="0 0 16.668 18.183">
  <path id="Path_21" data-name="Path 21" d="M312.173,5.682a2.841,2.841,0,1,1,2.841-2.841A2.845,2.845,0,0,1,312.173,5.682Zm0-4.546a1.7,1.7,0,1,0,1.7,1.7A1.707,1.707,0,0,0,312.173,1.136Zm0,0" transform="translate(-298.346)" fill="#fff"/>
  <path id="Path_22" data-name="Path 22" d="M312.173,357.682a2.841,2.841,0,1,1,2.841-2.841A2.845,2.845,0,0,1,312.173,357.682Zm0-4.546a1.7,1.7,0,1,0,1.7,1.7A1.707,1.707,0,0,0,312.173,353.136Zm0,0" transform="translate(-298.346 -339.499)" fill="#fff"/>
  <path id="Path_23" data-name="Path 23" d="M2.841,181.682a2.841,2.841,0,1,1,2.841-2.841A2.845,2.845,0,0,1,2.841,181.682Zm0-4.546a1.7,1.7,0,1,0,1.7,1.7A1.707,1.707,0,0,0,2.841,177.136Zm0,0" transform="translate(0 -169.749)" fill="#fff"/>
  <path id="Path_24" data-name="Path 24" d="M120.258,100.7a.568.568,0,0,1-.282-1.061l7.03-4.008a.568.568,0,0,1,.562.987l-7.03,4.008a.569.569,0,0,1-.28.074Zm0,0" transform="translate(-115.438 -92.166)" fill="#fff"/>
  <path id="Path_25" data-name="Path 25" d="M127.308,276.693a.563.563,0,0,1-.28-.075L120,272.611a.568.568,0,0,1,.562-.987l7.03,4.008a.568.568,0,0,1-.282,1.062Zm0,0" transform="translate(-115.459 -261.904)" fill="#fff"/>
</svg>
